<svg viewBox="0 0 900 380" xmlns="http://www.w3.org/2000/svg">
  <rect width="900" height="380" fill="#F4F1EA"/>
  <text x="450" y="30" font-size="20" font-weight="bold" text-anchor="middle" fill="#4A5942">When to Upgrade - Monthly Cost (USD)</text>
  <text x="450" y="50" font-size="11" text-anchor="middle" fill="#8A8577">All tools are free. These are the paid upgrade prices if you outgrow the free tier.</text>
  <line x1="60" y1="70" x2="60" y2="310" stroke="#DDD8CE" stroke-width="1"/>
  <line x1="60" y1="310" x2="870" y2="310" stroke="#DDD8CE" stroke-width="1"/>
  <text x="55" y="315" font-size="10" text-anchor="end" fill="#8A8577">$0</text>
  <text x="55" y="195" font-size="10" text-anchor="end" fill="#8A8577">$10</text>
  <text x="55" y="75" font-size="10" text-anchor="end" fill="#8A8577">$20</text>
  <rect x="70" y="306" width="60" height="4" rx="2" fill="#6B7C5E"/>
  <text x="100" y="298" font-size="10" font-weight="700" text-anchor="middle" fill="#4A5942">Free</text>
  <rect x="145" y="262" width="60" height="48" rx="6" fill="#96845A"/>
  <text x="175" y="254" font-size="10" font-weight="700" text-anchor="middle" fill="#4A5942">$8</text>
  <rect x="220" y="252" width="60" height="58" rx="6" fill="#96845A"/>
  <text x="250" y="244" font-size="10" font-weight="700" text-anchor="middle" fill="#4A5942">$10</text>
  <rect x="295" y="236" width="60" height="74" rx="6" fill="#96845A"/>
  <text x="325" y="228" font-size="10" font-weight="700" text-anchor="middle" fill="#4A5942">$12</text>
  <rect x="370" y="236" width="60" height="74" rx="6" fill="#96845A"/>
  <text x="400" y="228" font-size="10" font-weight="700" text-anchor="middle" fill="#4A5942">$12</text>
  <rect x="445" y="218" width="60" height="92" rx="6" fill="#96845A"/>
  <text x="475" y="210" font-size="10" font-weight="700" text-anchor="middle" fill="#4A5942">$15</text>
  <rect x="520" y="75" width="60" height="235" rx="6" fill="#8A8577"/>
  <text x="550" y="67" font-size="10" font-weight="700" text-anchor="middle" fill="#4A5942">$20</text>
  <rect x="595" y="75" width="60" height="235" rx="6" fill="#8A8577"/>
  <text x="625" y="67" font-size="10" font-weight="700" text-anchor="middle" fill="#4A5942">$20</text>
  <rect x="670" y="75" width="60" height="235" rx="6" fill="#8A8577"/>
  <text x="700" y="67" font-size="10" font-weight="700" text-anchor="middle" fill="#4A5942">$20</text>
  <text x="100" y="335" font-size="9" font-weight="600" text-anchor="middle" transform="rotate(-15,100,335)" fill="#4A5942">NotebookLM</text>
  <text x="175" y="335" font-size="9" font-weight="600" text-anchor="middle" fill="#4A5942">Ideogram</text>
  <text x="250" y="335" font-size="9" font-weight="600" text-anchor="middle" fill="#4A5942">Gamma</text>
  <text x="325" y="335" font-size="9" font-weight="600" text-anchor="middle" fill="#4A5942">Grammarly</text>
  <text x="400" y="335" font-size="9" font-weight="600" text-anchor="middle" fill="#4A5942">Leonardo</text>
  <text x="475" y="335" font-size="9" font-weight="600" text-anchor="middle" fill="#4A5942">Windsurf</text>
  <text x="550" y="335" font-size="9" font-weight="600" text-anchor="middle" fill="#4A5942">Claude</text>
  <text x="625" y="335" font-size="9" font-weight="600" text-anchor="middle" fill="#4A5942">ChatGPT</text>
  <text x="700" y="335" font-size="9" font-weight="600" text-anchor="middle" transform="rotate(-15,700,335)" fill="#4A5942">Perplexity</text>
  <text x="450" y="365" font-size="10" text-anchor="middle" fill="#8A8577">NotebookLM stays free forever (no paid tier). Data from RawPickAI.</text>
</svg>
